<svg id="Layer_1" data-name="Layer 1" xmlns="http://www.w3.org/2000/svg" viewBox="0 0 110.87 104.37"><defs><style>.cls-1{fill:none;}.cls-2{fill:#fcc11f;}</style></defs><title>copy3</title><path class="cls-1" d="M52.25,43.22c-4.8.5-8.6,5-8.1,9.4s4.9,7.4,9.6,6.9c5.1-.6,8.4-4.3,7.9-8.9A8.28,8.28,0,0,0,52.25,43.22Z" transform="translate(2 0)"/><path class="cls-2" d="M104.05,50.62c-5.6.1-11.3.5-16.9.8-4.5.3-9,.8-13.5.9-1.6,0-3.1-1.2-4.7-1.8.7-1.6,1.1-3.5,2.3-4.7,1.8-1.8,4.2-3.1,6.2-4.7,6.8-5.2,13.6-10.3,20.2-15.8a5,5,0,0,0,1.3-4.6,23.72,23.72,0,0,0-9.7-11.5c-1.8-1.1-3.4-1-4.7.6-2.3,2.8-4.6,5.7-6.9,8.6-4.6,6-9,12.1-13.7,17.9-.9,1.1-3.4,2.1-4.4,1.6a6.57,6.57,0,0,1-2.7-4.4c-.4-2.6,0-5.4.1-8.1.2-7.4.5-14.8.6-22.2,0-1.9-.7-3.4-2.9-3.2-4.9.4-10,.5-14.8,1.5-3.8.8-4.8,3.4-3.5,7.3,1.6,4.6,3.3,9.2,5.1,13.7s3.9,8.8,5.3,13.3a5.79,5.79,0,0,1-1.6,4.9c-1.4,1.4-3.5.9-4.9-.9-1-1.2-2.1-2.3-3.2-3.5-7.2-7.4-14.4-14.8-21.6-22.3-1.7-1.8-3.6-1.8-5.2-.1a62.48,62.48,0,0,0-7.3,9c-3.9,6.4-3.6,7.5,3.3,10.5,9.2,4.1,18.7,7.6,28,11.6,1.4.6,3.4,2.3,3.3,3.5-.1,2.3-2.4,2.9-4.5,2.9-.5,0-1-.1-1.6-.1-8.3.1-16.7-.2-25,.3-7.8.4-9.1-.2-8.2,10.3,1.3,3.6,2.5,7.2,3.8,10.8.9,2.5,2.7,3,5,1.9,6.1-3.1,12.3-6.1,18.4-9.2,3.3-1.7,6.6-3.6,10-5.1a4.86,4.86,0,0,1,6.2,1.5c1.4,1.9.7,3.9-.8,5.7-1.9,2.2-3.9,4.4-5.7,6.7-4.3,5.3-8.5,10.6-12.7,16-2,2.5-1.7,5.1,1,6.7A144.89,144.89,0,0,0,37,104c2.1.9,4.1.1,4.8-2.5.4-1.6.9-3.2,1.3-4.8,1.9-7.5,3.6-15,5.6-22.4a15.84,15.84,0,0,1,3.7-6.4c3.3-3.4,6.5-2.7,8.3,1.6,1.4,3.4,2.1,7.2,3.3,10.7,1.7,5.6,3.3,11.2,5.3,16.6,1.4,3.8,3,4.8,6.8,3.3a55.11,55.11,0,0,0,11.6-7c3.1-2.4,3-3.9.3-6.8-4-4.3-8.3-8.3-12.3-12.5a74.91,74.91,0,0,1-6.7-8.2c-.8-1.1-1.1-3.6-.4-4.4.8-1,2.9-.9,4.5-1.1.5-.1,1.2.4,1.7.6,2.9,1.3,5.7,2.6,8.6,3.8,5.7,2.3,11.4,4.7,17.1,6.8,3.7,1.3,5.2.8,6.3-2.8a55.08,55.08,0,0,0,2.1-13.4C109.05,51.22,108,50.52,104.05,50.62Zm-50.3,9.9c-4.7.5-9-2.6-9.6-6.9s3.3-8.9,8.1-9.4a8.49,8.49,0,0,1,9.5,7.4C62.25,56.22,59,59.92,53.75,60.52Z" transform="translate(2 0)"/></svg>