<?xml version="1.0" encoding="utf-8"?>
<!-- Generator: Adobe Illustrator 18.1.1, SVG Export Plug-In . SVG Version: 6.00 Build 0)  -->
<svg version="1.1" id="Layer_1" xmlns="http://www.w3.org/2000/svg" xmlns:xlink="http://www.w3.org/1999/xlink" x="0px" y="0px"
	 viewBox="0 0 841.9 595.3" enable-background="new 0 0 841.9 595.3" xml:space="preserve">
<g>
	<path fill="none" d="M320.7,329.9c3.2-2.8,6.2-6.2,9-10.1c2.8-3.9,5-8.6,6.7-14c1-2.9,1.3-4.9,0.9-6c-0.4-1.2-1.1-1.9-2.2-2.1
		c-2.3-0.6-6.2,2.5-11.8,9.3c-5.6,6.8-11.5,16.5-17.6,29.3c-0.4,0.8-0.8,1.7-1.2,2.5c-0.4,0.8-1,1.7-1.9,2.6
		c2.5-1.2,5.3-2.7,8.5-4.5C314.3,335.1,317.5,332.7,320.7,329.9z"/>
	<path fill="none" d="M489.5,280.4c0-0.8-0.1-1.5-0.3-2.2c-1-2.9-2.8-4.3-5.3-4.3c-2.5,0-5.4,1.5-8.7,4.4
		c-3.3,2.9-6.8,7.1-10.5,12.8c-3.7,5.7-7.2,12.8-10.5,21.2c-3.7,9.4-5.9,16.7-6.7,21.7c-0.7,5-0.9,8.7-0.5,11.1
		c0.6,2.8,1.9,4.4,3.7,4.8c1.4,0.1,3.4-1.5,5.9-4.9c2.5-3.4,5-7.4,7.6-11.9c2.6-4.6,5.1-9.2,7.4-13.9c2.4-4.7,4.2-8.3,5.4-10.8
		c2.9-6.4,6.4-13.5,10.5-21.3C488.8,284.3,489.5,282.1,489.5,280.4z"/>
	<path fill="none" d="M368.3,391.3c-4,0.7-8,4.4-12.1,11.1c-4.1,6.7-7.2,14.1-9.4,22.4c-2.2,8.3-2.8,15.1-1.8,20.4
		c0.9,5,3.1,7.2,6.5,6.6c3.6-0.6,7-3.3,10.3-7.9c3.3-4.6,5.9-9.9,8-15.8c2-5.9,3.5-11.7,4.5-17.4c1-5.7,1.3-10.1,0.7-13.1
		C374.2,392.7,371.9,390.6,368.3,391.3z"/>
	<path fill="none" d="M440.6,402.9c-0.1-0.3-0.2-0.5-0.5-0.4c-0.2,0-0.3,0.1-0.4,0.2c-1.2,0.6-2.7,1.8-4.6,3.5
		c-1.8,1.7-3.8,3.8-6,6.4s-3.8,5.7-5,9.3c-1.2,3.6-1.5,7.2-0.8,10.7c0.4,2.4,1.5,4.1,3.2,5.2c1.7,1.1,3.8,1.4,6.3,1
		c3.4-0.6,6.1-2.1,8.3-4.6c2.2-2.5,3.6-5.3,4.2-8.3c0.7-3,0.7-6,0.2-8.9C444.6,412.7,443,408,440.6,402.9z"/>
	<path fill="none" d="M455.7,376.7c-1.2-0.7-2.7-1-4.3-0.7c-2.4,0.4-4.4,1.6-6,3.7c-1.6,2-2.2,4.2-1.8,6.6c0.5,2.6,0.9,4.5,1.3,5.7
		c0.4,1.2,1.2,3.3,2.6,6.4c0.1,0.1,0.3,0.2,0.6,0.1c0.2,0,0.3-0.1,0.4-0.2c3.3-2.4,5.8-5.2,7.6-8.5c1.8-3.3,2.4-6.5,1.9-9.7
		C457.7,378.6,456.9,377.4,455.7,376.7z"/>
	<path fill="none" d="M681.7,173c-4.8,0.5-8.6,5-8.1,9.4c0.6,4.3,4.9,7.4,9.6,6.9c5.1-0.6,8.4-4.3,7.9-8.9
		C690.7,175.7,686.5,172.5,681.7,173z"/>
	<path fill="none" d="M576.6,283.7c3.2-3.5,5.3-6.7,6.3-9.5c1.2-3.3,1.6-6.5,1.2-9.7c-1,1.1-3.6,4.3-7.7,9.4
		c-4.1,5.1-9,11.9-14.5,20.3C568.5,290.7,573.4,287.2,576.6,283.7z"/>
	<path fill="#FCC11F" d="M733.5,180.4c-5.6,0.1-11.3,0.5-16.9,0.8c-4.5,0.3-9,0.8-13.5,0.9c-1.6,0-3.1-1.2-4.7-1.8
		c0.7-1.6,1.1-3.5,2.3-4.7c1.8-1.8,4.2-3.1,6.2-4.7c6.8-5.2,13.6-10.3,20.2-15.8c1.1-0.9,1.8-3.4,1.3-4.6c-2-4.8-5.2-8.8-9.7-11.5
		c-1.8-1.1-3.4-1-4.7,0.6c-2.3,2.8-4.6,5.7-6.9,8.6c-4.6,6-9,12.1-13.7,17.9c-0.9,1.1-3.4,2.1-4.4,1.6c-1.3-0.7-2.5-2.8-2.7-4.4
		c-0.4-2.6,0-5.4,0.1-8.1c0.2-7.4,0.5-14.8,0.6-22.2c0-1.9-0.7-3.4-2.9-3.2c-4.9,0.4-10,0.5-14.8,1.5c-3.8,0.8-4.8,3.4-3.5,7.3
		c1.6,4.6,3.3,9.2,5.1,13.7c1.7,4.4,3.9,8.8,5.3,13.3c0.4,1.4-0.4,3.8-1.6,4.9c-1.4,1.4-3.5,0.9-4.9-0.9c-1-1.2-2.1-2.3-3.2-3.5
		c-7.2-7.4-14.4-14.8-21.6-22.3c-1.7-1.8-3.6-1.8-5.2-0.1c-2.6,2.9-5.3,5.7-7.3,9c-3.9,6.4-3.6,7.5,3.3,10.5
		c9.2,4.1,18.7,7.6,28,11.6c1.4,0.6,3.4,2.3,3.3,3.5c-0.1,2.3-2.4,2.9-4.5,2.9c-0.5,0-1-0.1-1.6-0.1c-8.3,0.1-16.7-0.2-25,0.3
		c-7.8,0.4-9.1-0.2-8.2,10.3c1.3,3.6,2.5,7.2,3.8,10.8c0.9,2.5,2.7,3,5,1.9c6.1-3.1,12.3-6.1,18.4-9.2c3.3-1.7,6.6-3.6,10-5.1
		c2.2-1,4.7-0.6,6.2,1.5c1.4,1.9,0.7,3.9-0.8,5.7c-1.9,2.2-3.9,4.4-5.7,6.7c-4.3,5.3-8.5,10.6-12.7,16c-2,2.5-1.7,5.1,1,6.7
		c4.4,2.6,8.9,5,13.5,7.1c2.1,0.9,4.1,0.1,4.8-2.5c0.4-1.6,0.9-3.2,1.3-4.8c1.9-7.5,3.6-15,5.6-22.4c0.7-2.3,2-4.7,3.7-6.4
		c3.3-3.4,6.5-2.7,8.3,1.6c1.4,3.4,2.1,7.2,3.3,10.7c1.7,5.6,3.3,11.2,5.3,16.6c1.4,3.8,3,4.8,6.8,3.3c4.1-1.7,8-4.3,11.6-7
		c3.1-2.4,3-3.9,0.3-6.8c-4-4.3-8.3-8.3-12.3-12.5c-2.4-2.6-4.7-5.3-6.7-8.2c-0.8-1.1-1.1-3.6-0.4-4.4c0.8-1,2.9-0.9,4.5-1.1
		c0.5-0.1,1.2,0.4,1.7,0.6c2.9,1.3,5.7,2.6,8.6,3.8c5.7,2.3,11.4,4.7,17.1,6.8c3.7,1.3,5.2,0.8,6.3-2.8c1.2-4.3,2-8.9,2.1-13.4
		C738.5,181,737.4,180.3,733.5,180.4z M683.2,190.3c-4.7,0.5-9-2.6-9.6-6.9c-0.6-4.4,3.3-8.9,8.1-9.4c4.8-0.5,8.9,2.7,9.5,7.4
		C691.7,186,688.4,189.7,683.2,190.3z"/>
	<path fill="#5D5E5E" d="M286.9,295.8c1.8-3.2,3.7-6.5,5.7-9.9c2.1-3.4,4-6.7,5.7-9.7c1.8-3.1,3.1-5.4,4.2-6.9
		c0-0.2,0.1-0.4,0.3-0.6c2.1-3.6,4-7.2,5.9-10.8c1.9-3.6,3.2-7.1,4-10.6c0.8-3.5,0.9-6.8,0.2-9.9c-0.7-3.1-2.6-6.1-5.7-8.8
		c-0.4-0.5-0.9-1-1.4-1.5c-0.5-0.5-1.2-0.9-2-1.4c-3.3-1.7-7.3-0.8-12.1,2.8c-4.7,3.6-10,8.9-15.6,16c-5.7,7.1-11.6,15.5-17.6,25.1
		c-6.1,9.6-12,19.7-17.8,30c-5.8,10.4-11.2,20.7-16.4,30.9c-5.2,10.3-9.6,19.4-13.3,27.5c0.8-2.6,2.1-6,3.7-10.2
		c1.6-4.2,3.4-8.5,5.3-13c1.9-4.4,3.7-8.7,5.6-12.9c1.9-4.1,3.4-7.6,4.6-10.3c1.4-2.9,2.9-5.8,4.5-8.7c1.5-2.8,3.1-5.7,4.8-8.7
		l0.6-0.7c2.1-3.6,4.1-7.2,6-10.8c2-3.6,3.3-7.1,4-10.6c0.7-3.5,0.8-6.8,0.2-10.1c-0.6-3.2-2.5-6.2-5.6-8.9
		c-0.6-0.5-1.2-0.9-1.7-1.4c-0.5-0.5-1.1-0.9-1.7-1.1c-1.7-1.1-3.7-1.1-6-0.3c-2.4,0.9-5,2.4-7.7,4.6c-2.8,2.2-5.8,5-9.1,8.3
		c-3.3,3.3-6.6,7.1-9.9,11.3c1.9-5.5,3.4-10.9,4.5-16.1c1.1-5.3,1.6-9.9,1.4-13.9c-0.2-4-1.3-7-3.2-9.2c-2-2.1-5-3-9.1-2.5
		c-7.4,1.1-14.5,4.2-21.2,9.5c-6.7,5.3-12.5,10.9-17.5,16.9c-6,7.1-11.5,15-16.4,23.5c-3.1,5.7-4.4,10.1-3.9,13.3
		c0.5,3.2,1.8,5.4,3.7,6.8c2,1.4,4.1,2.1,6.3,2.2c2.3,0.1,3.6-0.1,4-0.5c0.4-0.5,0.6-1.1,0.6-1.8c0-0.4-0.1-0.6-0.3-0.8
		c1.2-3.3,3.4-8.2,6.5-14.7s6.5-13,10.4-19.4c3.8-6.4,7.7-11.8,11.8-16.4c4-4.5,7.5-6.4,10.4-5.8c2.3,0.6,2.9,3,2,7.4
		c-0.9,4.4-2.6,9.5-5,15.5c-2.4,6-5.2,12.1-8.4,18.4c-3.2,6.3-5.9,11.5-8.2,15.7c-4.7,9.2-10.1,19.1-16.1,29.7
		c-6,10.6-12,20.9-18.1,30.9c-6.1,10-11.9,19.2-17.5,27.5c-5.6,8.3-10.3,14.8-14.2,19.5c-1.4,1.6-2.7,3.2-3.7,4.9
		c-1,1.5-1.9,3.1-2.6,4.6c-0.7,1.6-1.1,3.1-1.1,4.6c-0.2,2.7,0,4.4,0.6,5.1c0.6,0.7,2.6-0.1,5.9-2.2c6.8-4.4,13.9-11,21.2-19.7
		c7.3-8.7,14.4-18,21.2-28c6.8-10,12.9-19.6,18.4-28.8c5.5-9.3,9.7-16.6,12.8-22.1c4.5-7.9,9.2-15.6,14.1-23.2
		c4.8-7.6,9.3-14.4,13.5-20.2c4.1-5.9,7.8-10.5,11-13.9c3.2-3.4,5.5-4.7,7-3.8c0.4,0.7,0.5,1.7,0.3,3.1c-0.2,1.2-0.7,2.8-1.5,5
		c-0.8,2.2-2.3,4.9-4.3,8.3c-2.9,5.3-5.8,10.6-8.7,16.1c-2.9,5.5-5.5,11-7.7,16.5c-1.9,4.3-3.9,9.4-6.2,15.3
		c-2.3,5.8-4.4,11.9-6.5,18c-2.1,6.2-3.9,12.2-5.6,18.2c-1.7,5.9-2.9,11.1-3.7,15.4c-0.2,1-0.4,2-0.5,3.1c-0.1,1.1-0.3,2.2-0.5,3.4
		c-0.4,1.8-0.3,4,0.3,6.5c0.6,2.6,2.7,4.3,6.2,5.3c3.9,1.2,6.9,1.4,8.8,0.4c2-1,3.7-3.1,5.1-6.2c1.6-4.7,3.8-10,6.5-15.9
		c2.7-5.9,5.6-12.1,8.7-18.6c3.5-7.3,7.5-15.2,11.9-23.8c4.4-8.6,9-17.2,13.6-25.9c4.6-8.6,9.3-16.9,13.9-24.9
		c4.6-8,9-15.1,13.2-21.5c4.1-6.3,7.9-11.5,11.3-15.6c3.4-4,6-6.4,7.9-7.1c0.4,0.7,0.5,1.7,0.3,3.1c-0.2,1.2-0.7,2.8-1.4,4.8
		c-0.7,2-2,4.7-3.9,8.1c-1.7,2.8-3.7,6.3-6.2,10.7c-2.5,4.3-5,8.9-7.6,13.6c-2.6,4.7-5,9.3-7.3,13.7c-2.3,4.4-4,8-5.3,10.7
		c-1.9,4.3-3.9,9.4-6,15.2c-2.2,5.8-4.3,11.8-6.3,18c-2.1,6.2-3.9,12.2-5.6,18.2c-1.7,5.9-2.9,11.1-3.7,15.4
		c-0.6,2.8-1.2,5.9-1.9,9.5c-0.6,3.5-1,7.1-1.2,10.5c-0.2,3.5-0.1,6.8,0.3,9.8c0.4,3.1,1.5,5.5,3.4,7.3c1.4,1.5,3.1,2.8,5,3.9
		s3.9,1.9,6.2,2.2c1.2,0.2,2.3-0.3,3.2-1.4c0.9-1.1,1.3-2.4,1.1-3.9c-0.8-7.5-0.5-16,1.1-25.4c1.5-9.4,3.7-19.1,6.5-29.1
		c2.8-9.9,6-19.7,9.7-29.2s7.4-18.2,11.1-26.2C284,301.3,285.2,299,286.9,295.8z"/>
	<path fill="#5D5E5E" d="M622.5,342.8c-0.8-0.2-1.8-0.4-2.8-0.4c-10.1-0.2-18.6-2.2-25.5-6c-6.9-3.8-12.6-8.1-17-12.9
		c-4.4-4.8-7.8-9.4-10.1-13.8c-2.3-4.4-3.7-7.4-4.3-9c7.4-2.4,13.7-5.3,18.9-8.5c5.2-3.3,9.4-6.3,12.7-9.2c3.7-3.3,6.8-6.7,9.3-10.2
		c3.5-6,5.6-10.8,6.2-14.5c0.6-3.7,0.5-6.8-0.3-9.1c-0.8-2.5-2.5-4.5-5-6c-1-0.8-2.5-1.2-4.3-1.3c-3.5,0-7.4,1.8-11.6,5.3
		c-4.2,3.5-8.6,8-13.2,13.4c-4.5,5.5-9,11.4-13.5,17.9c-4.4,6.5-8.5,12.8-12.2,19c5.8-15.9,11.8-30.4,18.1-43.6
		c6.3-13.1,12.2-24.7,17.8-34.7c5.6-10,10.6-18.3,15-24.8c4.4-6.5,7.6-11.1,9.4-13.7c1.4-2,1.4-3.7,0-5.2c-2.5-2.6-5.5-4-9-4.2
		c-3.5-0.2-6.4-0.1-8.7,0c-1.9,0.3-3.3,1.2-4.3,2.8c-14,21.9-25.5,42.4-34.3,61.5c-8.9,19.1-15.9,36.1-21.2,50.8
		c-1.3,3.7-2.5,7.2-3.6,10.5c-4.6,7.5-8.9,14.2-12.9,20c-5.2,7.4-9.8,13.3-13.9,17.6c-4.1,4.3-7.6,6.9-10.4,7.8
		c-2.8,0.9-4.6-0.3-5.4-3.4c-0.6-1.8-0.3-4.5,1.1-8.2c1.3-3.7,3.2-7.9,5.7-12.6c2.5-4.7,5.3-9.7,8.4-15.1c3.1-5.3,6.2-10.3,9.3-15.1
		c3.1-4.7,5.9-9,8.5-12.8c2.6-3.8,4.6-6.7,6-8.6c1.2-1.9,1-3.5-0.6-4.8c-2.5-1.9-5.4-3-8.7-3.5c-3.3-0.5-5.9-0.8-7.7-0.8
		c-1.9-0.1-3.2,0.5-4,1.8c-1.4,2.2-2.9,4.3-4.3,6.5c-1.4,2.2-2.9,4.4-4.3,6.8c0-1.1-0.2-2.4-0.6-3.8c-0.4-1.4-1-2.6-1.9-3.7
		c-0.8-1.1-1.9-2.1-3.2-2.9c-1.3-0.8-3-1.2-5.1-1c-2.5,0.2-5.7,1-9.7,2.4c-4,1.4-8.4,3.7-13,7.1c-4.6,3.4-9.4,7.9-14.2,13.5
		c-4.9,5.6-9.3,12.7-13.5,21.2c-1.3,2.6-2.3,5.2-3.2,7.8c-4.3,7.2-8.4,13.7-12.3,19.4c-5.2,7.5-9.8,13.3-13.9,17.6
		c-4.1,4.2-7.6,6.8-10.4,7.8c-2.8,1-4.7-0.1-5.7-3.2c-0.6-1.8-0.3-4.5,1.1-8.2c1.3-3.7,3.2-7.9,5.6-12.6c2.4-4.7,5.1-9.7,8.2-14.9
		c3.1-5.2,6.2-10.2,9.3-14.9c3.5-5.8,5.6-10.6,6.3-14.4c0.7-3.9,0.7-7-0.2-9.3c-0.8-2.7-2.5-4.7-5-6c-0.6-0.5-1.4-0.9-2.3-1.2
		c-0.9-0.3-2,0-3.2,1c-3.1,2.4-6,3.8-8.7,4.2c-2.7,0.4-5,0.3-6.8-0.1c0.8-1.9,1.3-3.6,1.5-5.1c0.4-1.4,0.5-2.9,0.3-4.4
		c-0.2-1.3-0.6-2.7-1.1-4.1c-0.5-1.4-1.5-2.8-2.9-4.1c-1.2-0.7-2.4-1.4-3.4-2c-1-0.4-2.1-0.5-3.2-0.4c-1.1,0.1-2.2,0.7-3.2,1.8
		c-0.8,1.1-1.7,2.6-2.5,4.4c-0.8,1.9-1.3,3.8-1.5,5.9c-0.2,2-0.1,4,0.5,5.9c0.5,1.9,1.7,3.4,3.6,4.4c-1,5.3-3.3,12.1-6.8,20.4
		c-3.2,7.5-7.2,16.1-11.9,25.7c-5.9,8.2-11.4,15.4-16.5,21.5c-7,8.4-12.7,14.4-17,18l-0.3,0.1c-0.4,0.5-1.4,1.3-2.9,2.7
		c-1.5,1.3-3.4,2.8-5.6,4.4c-2.2,1.6-4.4,3.1-6.8,4.3c-2.4,1.3-4.5,2.1-6.3,2.4c-0.8,0.1-1.4,0.2-1.9,0c-2.5-1.1-4.4-3-5.9-5.6
		c-1.2-2.3-2.1-5.4-2.5-9.3c-0.4-3.9,0.5-9.2,2.8-15.7c12.4-5.4,21.9-11,28.6-16.9c6.7-5.9,11.8-11.4,15.3-16.4
		c3.9-5.8,6.4-11.7,7.4-17.6c0.4-2.9,0.3-5.4-0.3-7.4c-0.4-1.8-1.2-3.5-2.5-4.9c-1.2-1.4-3.3-2.1-6.2-2c-2.3,0.2-5.5,1-9.6,2.4
		c-4.1,1.4-8.7,3.8-13.6,7.2s-10.2,8-15.8,13.7c-5.6,5.7-10.9,13-16.1,21.7c-2.9,5.9-5,11.7-6.3,17.6c-1.3,5.9-1.8,11.2-1.4,15.9
		c0.4,6.1,1.7,11.3,3.7,15.7c1.6,3.9,4.3,7.2,8,10c3.7,2.7,9,3.5,15.8,2.3c4.1-0.7,8.2-2,12.2-4c4-1.9,8.4-5.1,13.2-9.6l0.9-1
		l0.3-0.3c6-6.2,11.3-12.2,15.9-18.1c4.6-5.9,8.6-11.2,11.9-16.1c3.3-4.9,5.9-9,7.9-12.4c0.7-1.3,1.4-2.4,2-3.4
		c0.4-0.6,0.8-1.3,1.3-2c1.6-2.6,3.6-5.8,5.7-9.7c2.2-3.9,4.4-8.3,6.8-13.2c2.4-4.9,4.6-10.3,6.7-16.2c1.4,0.7,2.9,1.1,4.5,1.2
		c1.5,0.1,2.9,0.1,4.2-0.1c1.4-0.2,2.9-0.6,4.3-1c-4.1,5.1-7.9,10.3-11.3,15.7c-3.4,5.4-6.5,10.5-9.1,15.5c-2.7,5-5,9.5-6.8,13.6
		c-1.9,4.1-3.2,7.5-4,10.2c-1,3.2-1.5,6.1-1.5,8.6c0,2.5,0.2,4.6,0.6,6.2c0.4,2,1,3.8,1.9,5.4c2.3,3.6,5,6.2,8.2,7.6
		c3.2,1.5,6.5,2.5,10.1,3c1.9,0.4,3.7,0.3,5.4-0.4c1.8-0.7,3.2-1.5,4.5-2.5c1.4-1,2.9-2.2,4.3-3.6c5.4-6.1,10-12,13.9-17.9
		c3.2-4.7,5.9-9,8.3-13c0.5,6.1,1.9,11.4,4.3,15.8c2.8,5.3,6.3,8.9,10.7,10.9c4.3,2,8.5,1.7,12.4-1.1c2.9-2,5.5-4.5,7.7-7.5
		c2.3-3,4.4-6.2,6.5-9.6c0.2,0.5,0.5,1.2,0.9,1.9c0.2,0.4,0.3,0.6,0.3,0.8c2.3,3.4,5,5.9,8.2,7.5c3.2,1.6,6.4,2.5,9.7,2.9
		c2.1,0.4,4,0.3,5.7-0.4c1.8-0.7,3.2-1.5,4.5-2.5c1.4-1,2.8-2.2,4-3.6c5.4-6.1,10-12,13.9-17.7c1-1.5,2-3,2.9-4.4
		c-1.8,7.7-2.9,12.7-3.2,14.9c0,1.1,0.2,1.9,0.6,2.2c0.4,0.7,1.1,1.5,2,2.4c0.9,0.9,2.1,1.9,3.6,3c1,0.6,2,1.1,2.9,1.5
		c0.9,0.4,1.8,0.7,2.6,1c1,0.2,2.1,0,3.1-0.7c1-0.7,1.8-1.5,2.2-2.5c0.4-1.6,0.7-2.9,0.9-3.9v0.3c2.7-6.6,5.5-12.7,8.4-18.5
		c2.9-5.8,5.8-11.2,8.7-16.3c1,5.6,2.9,11.8,5.6,18.6c2.7,6.8,6.2,13,10.5,18.4c4.3,5.5,9.6,9.8,15.8,12.9
		c6.2,3.1,13.3,3.8,21.4,2.1c1.4-0.2,3.1-1.1,5-2.6s3.7-3.1,5.4-4.8c1.8-1.7,3.4-3.4,4.8-5c1.4-1.6,2.5-2.8,3.1-3.7
		C624.6,344.3,624.2,343.3,622.5,342.8z M304.4,338.7c0.4-0.8,0.8-1.7,1.2-2.5c6.2-12.7,12.1-22.5,17.6-29.3
		c5.6-6.8,9.5-9.9,11.8-9.3c1,0.2,1.8,0.9,2.2,2.1c0.4,1.2,0.1,3.2-0.9,6c-1.7,5.4-3.9,10.1-6.7,14c-2.8,3.9-5.8,7.3-9,10.1
		c-3.2,2.8-6.4,5.2-9.6,6.9c-3.2,1.8-6,3.3-8.5,4.5C303.4,340.4,304,339.5,304.4,338.7z M477.1,308.3c-1.2,2.5-3,6.1-5.4,10.8
		c-2.4,4.7-4.9,9.3-7.4,13.9c-2.6,4.6-5.1,8.5-7.6,11.9c-2.5,3.4-4.4,5-5.9,4.9c-1.9-0.4-3.1-2.1-3.7-4.8c-0.4-2.4-0.3-6.1,0.5-11.1
		c0.7-5,2.9-12.2,6.7-21.7c3.3-8.4,6.8-15.5,10.5-21.2c3.7-5.7,7.2-10,10.5-12.8c3.3-2.9,6.2-4.3,8.7-4.4c2.5,0,4.2,1.4,5.3,4.3
		c0.2,0.7,0.3,1.5,0.3,2.2c0,1.7-0.6,3.9-1.9,6.6C483.5,294.8,480,301.9,477.1,308.3z M576.4,273.8c4.1-5.1,6.7-8.2,7.7-9.4
		c0.4,3.2,0,6.4-1.2,9.7c-1,2.9-3.1,6-6.3,9.5c-3.2,3.5-8.1,7-14.7,10.4C567.4,285.7,572.3,278.9,576.4,273.8z"/>
	<path fill="#5D5E5E" d="M675.1,266.1c-1.2-1.3-2.5-1-3.7,0.9c-5.8,10.2-11.2,19-16.4,26.3c-5.2,7.4-9.8,13.3-13.9,17.6
		c-4.1,4.3-7.6,6.9-10.4,7.8c-2.8,0.9-4.6-0.3-5.4-3.4c-0.6-1.8-0.3-4.5,1.1-8.2c1.3-3.7,3.2-7.9,5.6-12.6c2.4-4.7,5.2-9.7,8.4-15.1
		c3.2-5.3,6.3-10.4,9.3-15.1c3-4.7,5.8-9,8.4-12.8c2.6-3.8,4.6-6.7,6-8.6c1.2-1.7,1.1-3.3-0.3-4.8c-2.7-1.8-5.7-3-9-3.5
		c-3.3-0.5-5.9-0.8-7.7-0.8c-1.7-0.1-2.9,0.5-3.7,1.8c-4.1,5.7-8,11.7-11.6,18.1c-3.6,6.4-6.9,12.5-9.9,18.5c-3,6-5.6,11.4-7.7,16.4
		c-2.2,5-3.8,9-4.8,12c-1,3.2-1.6,6.1-1.7,8.5c-0.1,2.4,0.1,4.5,0.5,6.4c0.4,2,1.1,3.8,2.2,5.4c2.3,3.4,5,5.9,8.2,7.5
		c3.2,1.6,6.5,2.5,10.1,2.9c1.9,0.4,3.7,0.3,5.4-0.4c1.8-0.7,3.2-1.5,4.5-2.5c1.4-1,2.9-2.2,4.3-3.6c5.4-6.1,10-12,13.9-17.7
		c3.9-5.7,7.3-11,10.1-15.9c2.8-4.9,5-9,6.5-12.3c1.5-3.3,2.6-5.6,3.3-6.9c0.2-0.4,0.3-1.1,0.3-2.1c0-1-0.2-1.7-0.5-2.4
		C675.9,266.9,675.5,266.4,675.1,266.1z"/>
	<path fill="#FCC11F" d="M326.3,398c-2.9-1-6.1-1.2-9.4-0.6c-2.7,0.5-5.1,1.4-7.1,2.6c-2,1.3-3.4,2.6-4.3,4
		c-0.9,1.4-1.6,2.9-2.1,4.4c-0.5,1.5-0.8,2.7-0.9,3.5c-0.1,0.8-0.1,1.3,0,1.5c0.1,0.7,0.4,1,1,0.9c0.4-0.1,0.8-0.5,1.2-1.3l1.1-1.9
		c0.7-1.3,2-2.6,3.7-4.1c1.7-1.5,3.6-2.4,5.6-2.8c1.9-0.3,3.5-0.1,4.9,0.6c1.4,0.8,2.3,2,2.6,3.6c0.3,1.9,0,4.1-1.1,6.6
		c-1,2.6-2.7,5.3-5,8.3c-2.3,3-4.1,5.2-5.3,6.7c-1.3,1.5-2.9,3.3-4.9,5.5l-4.9,5.4c-3.3,3.5-6.8,7.7-10.7,12.5
		c-3.9,4.8-6.4,8.4-7.7,10.9l-0.2,1.4c0.1,0.6,0.6,0.8,1.4,0.7c0.3-0.1,2-0.4,5.1-1c3.1-0.6,5.6-1.1,7.7-1.4
		c1.5-0.3,3.4-0.6,5.6-0.9c2.2-0.3,3.8-0.6,4.7-0.7c4.5-0.8,7-1.6,7.6-2.3l0.7-0.8c0.4-0.5,1-1.7,1.8-3.6s1.4-4.2,2-6.9
		c0.1-0.2,0.1-0.4,0.1-0.6c-0.1-0.5-0.4-0.7-0.9-0.6c-0.5,0.1-0.9,0.4-1.2,1c-1.8,3.4-6.3,5.7-13.4,6.9c-2.6,0.5-4.9,0.7-7,0.7
		c-0.8,0.1-1.2-0.2-1.3-0.8c-0.4-2.1,2.8-6.8,9.4-14.3c6.6-7.5,11.5-12.5,14.5-15.1c9.1-8.1,13-15.4,11.9-21.9
		C331,401,329.3,399,326.3,398z"/>
	<path fill="#FCC11F" d="M379,389.9c-2.2-1.8-5-2.5-8.4-1.9c-6.1,1.1-11.7,4.1-17,9.2c-4.1,3.9-7.6,9.1-10.7,15.5
		c-3.1,6.4-5.1,12.5-6.3,18.4s-1.4,10.8-0.7,14.7c0.7,3.8,2,6.6,4,8.4c2,1.9,4.6,2.5,7.7,2c4.5-0.8,9.1-3.3,13.9-7.6
		c4.8-4.3,8.9-9.3,12.3-15c3.4-5.7,6.1-11.8,8-18.3c1.9-6.5,2.4-12.1,1.5-17C382.6,394.5,381.2,391.7,379,389.9z M374.3,410.6
		c-1,5.7-2.5,11.6-4.5,17.4c-2,5.9-4.7,11.2-8,15.8c-3.3,4.6-6.7,7.3-10.3,7.9c-3.5,0.6-5.6-1.6-6.5-6.6c-0.9-5.3-0.3-12.1,1.8-20.4
		c2.2-8.3,5.3-15.7,9.4-22.4c4.1-6.7,8.2-10.3,12.1-11.1c3.6-0.6,5.9,1.4,6.7,6.2C375.5,400.4,375.3,404.8,374.3,410.6z"/>
	<path fill="#FCC11F" d="M418.5,380.8c-0.1-0.5-0.5-0.7-1.1-0.8c-4,0.7-7.6,1.7-11,3c-3.3,1.3-5.4,2.2-6.4,2.8c-0.9,0.6-1.6,1-2,1.4
		l-0.1,0.2c-0.1,0.1-0.2,0.3-0.3,0.5c-0.1,0.2-0.1,0.4-0.1,0.5c0.1,0.4,0.6,0.6,1.5,0.4l3.1-1c2.1-0.4,3.2,0,3.4,1.2
		c0.5,2.6-2.8,12-9.7,28l-1.1,2.9c-0.8,2-1.7,4.4-2.7,7.2c-1,2.8-2.1,5.7-3.1,8.6c-1,2.9-1.9,5.6-2.5,8c-0.6,2.4-0.9,4-0.8,4.7
		c0.1,0.7,0.6,1,1.5,0.8c2.4-0.4,4.3-2.1,5.9-5c1-1.9,2-4.1,3-6.6c1-2.5,1.7-4.4,2.2-5.9c0.5-1.4,1.3-3.9,2.4-7.2
		c1.1-3.4,1.8-5.5,2.1-6.5c2.1-6.3,5.2-14.3,9.2-24.2c2.3-5.5,4.2-9.3,5.7-11.4C418.3,381.7,418.6,381.2,418.5,380.8z"/>
	<path fill="#FCC11F" d="M461.2,374c-2.5-0.8-5.5-0.9-9-0.3c-5,0.9-9.1,2.9-12.3,6.1c-3.1,3.2-4.4,6.6-3.8,10.2
		c0.7,3.9,1.7,7.1,3,9.7c0.1,0.4,0,0.7-0.3,0.9c-3,1.7-5.8,3.6-8.5,5.6s-5.4,4.4-8.2,7.1c-2.8,2.7-4.9,5.7-6.3,8.9
		c-1.4,3.2-1.8,6.4-1.3,9.4c0.7,4,2.7,6.8,5.8,8.3c3.2,1.5,7.1,1.9,11.8,1c6.8-1.2,12.4-4.2,16.7-9.1c4.3-4.9,5.9-10.5,4.8-16.9
		c-0.2-1.3-0.6-2.7-1-4.1c-0.4-1.4-0.8-2.7-1.2-3.8c-0.4-1.1-0.8-2.1-1.2-3c-0.4-0.9-0.7-1.6-1-2.2l-0.4-0.8c-0.1-0.3,0-0.5,0.2-0.6
		c12.1-8.2,17.6-15.4,16.5-21.6C465.2,376.4,463.7,374.8,461.2,374z M445.1,425.8c-0.7,3-2.1,5.8-4.2,8.3c-2.2,2.5-4.9,4.1-8.3,4.6
		c-2.5,0.4-4.6,0.1-6.3-1c-1.7-1.1-2.7-2.8-3.2-5.2c-0.6-3.5-0.3-7.1,0.8-10.7c1.2-3.6,2.8-6.7,5-9.3s4.1-4.7,6-6.4
		c1.8-1.7,3.4-2.9,4.6-3.5c0.1-0.1,0.2-0.1,0.4-0.2c0.3-0.1,0.5,0.1,0.5,0.4c2.5,5.1,4.1,9.8,4.8,14
		C445.9,419.8,445.8,422.8,445.1,425.8z M456.1,389.9c-1.8,3.3-4.4,6.1-7.6,8.5c-0.1,0.1-0.2,0.1-0.4,0.2c-0.2,0-0.4,0-0.6-0.1
		c-1.3-3.1-2.2-5.2-2.6-6.4c-0.4-1.2-0.8-3.1-1.3-5.7c-0.4-2.4,0.2-4.6,1.8-6.6c1.6-2,3.6-3.3,6-3.7c1.6-0.3,3-0.1,4.3,0.7
		c1.2,0.7,2,1.9,2.3,3.5C458.5,383.4,457.9,386.7,456.1,389.9z"/>
</g>
</svg>
